<svg xmlns="http://www.w3.org/2000/svg" fill="#fff" width="32px" height="32px"  viewBox="0 0 24 24"><g>
    <path d="M15.811,10.399c0.45-0.46-0.25-1.17-0.71-0.71l-3.56,3.56c-0.58-0.58-1.16-1.16-1.73-1.73
        c-0.46-0.46-1.17,0.25-0.71,0.71l2.08,2.08c0.2,0.19,0.52,0.19,0.71,0L15.811,10.399z"/>
    <path d="M12,21.933c-5.478,0-9.934-4.456-9.934-9.933S6.522,2.067,12,2.067S21.934,6.523,21.934,12
        S17.478,21.933,12,21.933z M12,3.067c-4.926,0-8.934,4.007-8.934,8.933S7.074,20.933,12,20.933s8.934-4.007,8.934-8.933
        S16.926,3.067,12,3.067z"/>
</g></svg>