<svg xmlns="http://www.w3.org/2000/svg" width="32px" height="32px"  viewBox="0 0 24 24"><g>
                <path d="M18.436,20.936h-2.933c-1.378,0-2.5-1.122-2.5-2.5V5.564c0-1.378,1.122-2.5,2.5-2.5h2.933
                    c1.378,0,2.5,1.122,2.5,2.5v12.871C20.936,19.814,19.814,20.936,18.436,20.936z M15.503,4.064c-0.827,0-1.5,0.673-1.5,1.5v12.871
                    c0,0.827,0.673,1.5,1.5,1.5h2.933c0.827,0,1.5-0.673,1.5-1.5V5.564c0-0.827-0.673-1.5-1.5-1.5H15.503z"/>
                <path d="M8.497,20.936H5.564c-1.378,0-2.5-1.122-2.5-2.5V5.564c0-1.378,1.122-2.5,2.5-2.5h2.933
                    c1.378,0,2.5,1.122,2.5,2.5v12.871C10.997,19.814,9.876,20.936,8.497,20.936z M5.564,4.064c-0.827,0-1.5,0.673-1.5,1.5v12.871
                    c0,0.827,0.673,1.5,1.5,1.5h2.933c0.827,0,1.5-0.673,1.5-1.5V5.564c0-0.827-0.673-1.5-1.5-1.5H5.564z"/>
            </g></svg>