<svg xmlns="http://www.w3.org/2000/svg" width="32px" height="32px"  viewBox="0 0 24 24"><g>
                <path d="M18.436,10.997H5.564c-1.378,0-2.5-1.122-2.5-2.5V5.564c0-1.378,1.122-2.5,2.5-2.5h12.871
                    c1.378,0,2.5,1.122,2.5,2.5v2.933C20.936,9.876,19.814,10.997,18.436,10.997z M5.564,4.064c-0.827,0-1.5,0.673-1.5,1.5v2.933
                    c0,0.827,0.673,1.5,1.5,1.5h12.871c0.827,0,1.5-0.673,1.5-1.5V5.564c0-0.827-0.673-1.5-1.5-1.5H5.564z"/>
                <path d="M18.436,20.936H5.564c-1.378,0-2.5-1.122-2.5-2.5v-2.933c0-1.378,1.122-2.5,2.5-2.5h12.871
                    c1.378,0,2.5,1.122,2.5,2.5v2.933C20.936,19.814,19.814,20.936,18.436,20.936z M5.564,14.003c-0.827,0-1.5,0.673-1.5,1.5v2.933
                    c0,0.827,0.673,1.5,1.5,1.5h12.871c0.827,0,1.5-0.673,1.5-1.5v-2.933c0-0.827-0.673-1.5-1.5-1.5H5.564z"/>
            </g></svg>