<svg xmlns="http://www.w3.org/2000/svg" width="32px" height="32px"  viewBox="0 0 24 24"><g>
                <path d="M18.437,20.937H5.563c-1.379,0-2.5-1.122-2.5-2.5V5.563c0-1.378,1.121-2.5,2.5-2.5h12.873
                    c1.379,0,2.5,1.122,2.5,2.5v12.874C20.937,19.815,19.815,20.937,18.437,20.937z M5.563,4.063c-0.827,0-1.5,0.673-1.5,1.5v12.874
                    c0,0.827,0.673,1.5,1.5,1.5h12.873c0.827,0,1.5-0.673,1.5-1.5V5.563c0-0.827-0.673-1.5-1.5-1.5H5.563z"/>
                <path d="M12.5,14.545c0,0.645-1,0.643-1,0v-8l0,0c0-0.645,1-0.643,1,0V14.545z"/>
                <path d="M16.717,12.454c0,0.645-1,0.643-1,0V6.545l0,0c0-0.645,1-0.643,1,0V12.454z"/>
                <path d="M8.28,6.545c0-0.643-1-0.645-1,0l0,0v4c0,0.643,1,0.645,1,0V6.545z"/>
            </g></svg>