<svg xmlns="http://www.w3.org/2000/svg" width="32px" height="32px"  viewBox="0 0 24 24"><path d="M18.44,3.06H5.56c-1.38,0-2.5,1.13-2.5,2.5v12.88c0,1.37,1.12,2.5,2.5,2.5h12.88
                c1.37,0,2.5-1.13,2.5-2.5V5.56C20.94,4.19,19.81,3.06,18.44,3.06z M8.71,19.94H5.56c-0.83,0-1.5-0.68-1.5-1.5v-3.11h4.65V19.94z
                M8.71,14.33H4.06V9.67h4.65V14.33z M8.71,8.67H4.06V5.56c0-0.82,0.67-1.5,1.5-1.5h3.15V8.67z M19.94,18.44c0,0.82-0.68,1.5-1.5,1.5
                H9.71v-4.61h10.23V18.44z M19.94,14.33H9.71V9.67h10.23V14.33z M19.94,8.67H9.71V4.06h8.73c0.82,0,1.5,0.68,1.5,1.5V8.67z"/></svg>