<svg xmlns="http://www.w3.org/2000/svg" width="32px" height="32px"  viewBox="0 0 24 24"><g>
                <path d="M18.437,20.937H5.563c-1.379,0-2.5-1.122-2.5-2.5V5.563c0-1.378,1.121-2.5,2.5-2.5h12.874
                    c1.379,0,2.5,1.122,2.5,2.5v12.873C20.937,19.815,19.816,20.937,18.437,20.937z M5.563,4.063c-0.827,0-1.5,0.673-1.5,1.5v12.873
                    c0,0.827,0.673,1.5,1.5,1.5h12.874c0.827,0,1.5-0.673,1.5-1.5V5.563c0-0.827-0.673-1.5-1.5-1.5H5.563z"/>
                <path d="M6.546,8.283L6.546,8.283c-0.645,0-0.643-1,0-1H12c0.645,0,0.643,1,0,1H6.546z"/>
                <path d="M9.272,12.5L9.272,12.5c-0.645,0-0.643-1,0-1h5.455c0.645,0,0.643,1,0,1H9.272z"/>
                <path d="M12,16.72L12,16.72c-0.645,0-0.643-1,0-1h5.455c0.645,0,0.643,1,0,1H12z"/>
            </g></svg>